<svg width="10" height="10" viewBox="0 0 10 10" fill="none" xmlns="http://www.w3.org/2000/svg">
<path d="M9.68063 9.10842L7.30061 6.63308C7.91256 5.90563 8.24784 4.99035 8.24784 4.0375C8.24784 1.81126 6.43659 0 4.21035 0C1.98411 0 0.172852 1.81126 0.172852 4.0375C0.172852 6.26374 1.98411 8.07499 4.21035 8.07499C5.04611 8.07499 5.84255 7.82291 6.52348 7.34438L8.92158 9.8385C9.02181 9.9426 9.15663 10 9.3011 10C9.43785 10 9.56758 9.94786 9.66606 9.85307C9.8753 9.65172 9.88198 9.31784 9.68063 9.10842ZM4.21035 1.05326C5.85589 1.05326 7.19458 2.39195 7.19458 4.0375C7.19458 5.68304 5.85589 7.02173 4.21035 7.02173C2.5648 7.02173 1.22611 5.68304 1.22611 4.0375C1.22611 2.39195 2.5648 1.05326 4.21035 1.05326Z" fill="black"/>
</svg>
