<svg width="15" height="18" viewBox="0 0 15 18" fill="none" xmlns="http://www.w3.org/2000/svg">
<path d="M14.2082 17.366L11.8352 12.3464C11.7878 12.2462 11.7057 12.1695 11.6073 12.1276L10.4268 11.602L12.4724 8.17366C12.4772 8.16543 12.4819 8.1571 12.4862 8.14859C12.8929 7.3548 13.0992 6.49702 13.0992 5.59924C13.0992 4.08896 12.5069 2.67308 11.4315 1.61245C10.3563 0.552066 8.93185 -0.0206644 7.42066 0.000569959C5.95295 0.0209254 4.57103 0.610461 3.52939 1.66065C2.48785 2.71077 1.90946 4.09743 1.90074 5.56531C1.89539 6.46232 2.10735 7.35558 2.51355 8.14856C2.51791 8.15703 2.52251 8.1654 2.5274 8.17363L4.57293 11.602L3.38556 12.1304C3.28843 12.1736 3.21003 12.2502 3.16461 12.3463L0.791664 17.366C0.712246 17.5339 0.74575 17.7335 0.875617 17.8663C1.00545 17.9991 1.20415 18.0371 1.37385 17.9616L4.34659 16.6381L7.31934 17.9616C7.43433 18.0127 7.56564 18.0127 7.68064 17.9616L10.6534 16.6381L13.6261 17.9616C13.6842 17.9874 13.7457 18 13.8066 18C13.9238 18 14.039 17.9537 14.1244 17.8663C14.2541 17.7335 14.2876 17.5339 14.2082 17.366ZM3.29781 7.73108C2.95574 7.05847 2.78457 6.33168 2.7891 5.57062C2.80415 3.02429 4.88744 0.924019 7.43303 0.888758C8.70449 0.871672 9.90321 1.35278 10.8078 2.24495C11.7126 3.13732 12.2109 4.32855 12.2109 5.59927C12.2109 6.35018 12.0397 7.06729 11.7021 7.73108L7.88138 14.1347C7.76473 14.3302 7.5758 14.3513 7.49997 14.3513C7.4241 14.3513 7.23517 14.3302 7.11856 14.1347L3.29781 7.73108ZM10.8339 15.7462C10.7189 15.695 10.5876 15.695 10.4726 15.7462L7.4999 17.0697L4.52716 15.7462C4.41216 15.695 4.28085 15.695 4.16586 15.7462L2.10647 16.6631L3.89726 12.875L5.03133 12.3703L6.3556 14.5898C6.59832 14.9966 7.0261 15.2395 7.49983 15.2395C7.97356 15.2395 8.40134 14.9966 8.64406 14.5899L9.96832 12.3703L11.1025 12.8752L12.8932 16.6631L10.8339 15.7462Z" fill="#BDBDBD"/>
</svg>
