<svg width="20" height="20" viewBox="0 0 20 20" fill="none" xmlns="http://www.w3.org/2000/svg">
<g clip-path="url(#clip0_800_27)">
<path d="M18.4406 3.16877C17.3875 2.09174 15.9788 1.49857 14.474 1.49857C12.9923 1.49857 11.5993 2.07564 10.5513 3.12365L10.0104 3.66486L9.46906 3.1235C8.42117 2.07561 7.02836 1.49854 5.54715 1.49854C4.06547 1.49854 2.67242 2.07561 1.62461 3.1235C0.576953 4.17111 0 5.56404 0 7.04572C0 8.5274 0.576953 9.92033 1.62461 10.9679L8.5575 17.9008C8.95801 18.3012 9.48395 18.5015 10.01 18.5015C10.5359 18.5014 11.062 18.3012 11.4624 17.9008L18.3506 11.0132C20.5141 8.84967 20.5545 5.33072 18.4406 3.16877ZM17.6243 10.287L10.7361 17.1747C10.3357 17.5751 9.68414 17.5751 9.28375 17.1746L2.35082 10.2417C1.49715 9.38803 1.02703 8.25303 1.02703 7.04568C1.02703 5.83834 1.49715 4.70334 2.35082 3.84967C3.20465 2.9958 4.3398 2.52557 5.54715 2.52557C6.75402 2.52557 7.88895 2.9958 8.74281 3.84967L9.28445 4.39131L8.45504 5.22135C8.25457 5.42197 8.25473 5.74709 8.45531 5.94756C8.55559 6.04775 8.68691 6.09783 8.81828 6.09783C8.9498 6.09783 9.08125 6.0476 9.18152 5.94728L11.2775 3.84963C12.1314 2.99576 13.2665 2.52553 14.4739 2.52553C15.7 2.52553 16.8479 3.00896 17.7062 3.88674C19.4287 5.64834 19.3919 8.51943 17.6243 10.287Z" fill="#FFE400"/>
<path d="M18.2144 6.81258C18.158 5.8993 17.7711 5.04047 17.1249 4.39426C16.6674 3.93676 16.0997 3.60434 15.4833 3.43274C15.2101 3.35672 14.927 3.5166 14.851 3.78985C14.7749 4.06305 14.9348 4.34617 15.2081 4.42219C15.6544 4.54637 16.0661 4.78782 16.3988 5.12043C16.8677 5.58934 17.1484 6.21274 17.1894 6.87582C17.2063 7.14813 17.4323 7.3577 17.7015 7.3577C17.7121 7.3577 17.7229 7.35739 17.7336 7.35668C18.0167 7.3393 18.2319 7.09567 18.2144 6.81258Z" fill="#FFE400"/>
</g>
<defs>
<clipPath id="clip0_800_27">
<rect width="20" height="20" fill="white"/>
</clipPath>
</defs>
</svg>
