<svg width="65" height="65" viewBox="0 0 65 65" fill="none" xmlns="http://www.w3.org/2000/svg">
<g clip-path="url(#clip0_399_220)">
<path d="M39.7826 13.6338C38.5238 12.2183 36.5609 11.4064 34.397 11.4064C30.5324 11.4064 27.078 14.045 26.6961 17.292C26.5249 18.7771 26.9857 20.2179 27.9937 21.3487C29.2323 22.7384 31.1777 23.5353 33.3318 23.5353C37.2966 23.5353 40.7002 20.9499 41.0805 17.6532C41.2519 16.1952 40.7911 14.7679 39.7826 13.6338ZM37.9812 17.2918C37.7861 18.9848 35.6567 20.4149 33.3316 20.4149C32.0852 20.4149 30.9604 19.9879 30.3229 19.2726C29.9031 18.8016 29.7259 18.2555 29.7953 17.6529C29.9912 15.9875 32.1414 14.5266 34.3969 14.5266C35.6519 14.5266 36.7936 14.968 37.4511 15.7071C37.7398 16.0317 38.0663 16.5696 37.9812 17.2918Z" fill="#32B66D"/>
<path d="M38.3083 46.9069C37.9183 46.6453 37.0055 46.0331 37.7424 41.7827C37.7613 41.69 37.8353 41.3474 37.9502 40.815C38.2118 39.6017 38.6988 37.3436 39.2281 34.8254C39.2294 34.8199 39.2306 34.814 39.2316 34.8084C39.7719 32.0869 39.3442 29.7062 37.9955 27.9234C36.7779 26.3139 34.8501 25.3272 32.5677 25.1454C29.1926 24.8754 25.6618 26.8896 24.5801 28.8724C24.0801 29.7509 24.3195 30.4644 24.508 30.8134C24.7416 31.245 25.0824 31.487 25.3313 31.6636C25.7148 31.9357 26.6126 32.5729 25.76 36.8144C25.6803 37.2024 24.4906 43.2511 24.3333 44.1098C24.3322 44.1155 24.3313 44.1213 24.3302 44.127C23.8614 46.8616 24.325 49.2515 25.7459 50.9773C28.0341 53.7563 31.517 53.6228 31.6533 53.6228C34.8994 53.6227 38.1442 51.6066 39.1321 49.6773C39.6091 48.7859 39.3514 48.0791 39.1533 47.7352C38.9089 47.3099 38.5617 47.0769 38.3083 46.9069ZM36.1722 34.193C35.6455 36.6993 35.1605 38.9482 34.8998 40.1571C34.7224 40.979 34.6866 41.1459 34.6739 41.2143C34.673 41.2198 34.6719 41.2254 34.671 41.2311C33.8788 45.7841 34.6805 47.7768 35.8152 48.8916C35.5052 49.1682 35.0805 49.4669 34.5548 49.7381C33.5209 50.2715 32.3757 50.5474 31.4112 50.4965C30.0062 50.4215 28.8902 49.9146 28.1843 49.0303C27.3623 48.001 27.0925 46.4909 27.4041 44.6633C27.5737 43.7392 28.765 37.689 28.815 37.4483C28.8159 37.443 28.8171 37.4379 28.8182 37.4325C29.7295 32.9019 28.9799 30.8889 27.8749 29.7448C28.1921 29.4764 28.6246 29.1889 29.1572 28.9317C30.2046 28.4257 31.3575 28.1796 32.3197 28.256C33.7223 28.3677 34.8243 28.9037 35.507 29.8061C36.3018 30.8566 36.532 32.3736 36.1722 34.193Z" fill="#32B66D"/>
<path d="M58.3493 50.1414C62.6443 44.9874 65.0001 38.6207 65.0001 32.1187C65.0001 24.1492 61.6006 16.6651 55.4283 11.0448C49.2966 5.46176 41.1539 2.38696 32.5002 2.38696C23.8464 2.38696 15.7036 5.46176 9.57187 11.0449C3.39929 16.665 0 24.1494 0 32.1188C0 40.0883 3.39929 47.5727 9.57174 53.1927C15.7034 58.7759 23.8461 61.8506 32.4998 61.8506C37.9112 61.8506 43.2443 60.6153 47.9714 58.2721L59.2982 62.5139C59.4762 62.5805 59.6612 62.6129 59.8449 62.6129C60.2308 62.6129 60.6102 62.4698 60.9036 62.1992C61.3364 61.7996 61.5073 61.1904 61.3454 60.6241L58.3493 50.1414ZM48.423 55.1095C48.008 54.954 47.5465 54.9825 47.1533 55.1877C42.7176 57.5053 37.6505 58.7304 32.4999 58.7304C16.3 58.7304 3.12025 46.7927 3.12025 32.1189C3.12025 17.4452 16.2999 5.50708 32.4998 5.50708C48.6998 5.50708 61.8796 17.445 61.8796 32.1186C61.8796 38.2244 59.656 43.9683 55.4492 48.7298C55.0968 49.1286 54.972 49.6798 55.1184 50.1915L57.4949 58.5066L48.423 55.1095Z" fill="#32B66D"/>
</g>
<defs>
<clipPath id="clip0_399_220">
<rect width="65" height="65" fill="white"/>
</clipPath>
</defs>
</svg>
