<svg width="81" height="81" viewBox="0 0 81 81" fill="none" xmlns="http://www.w3.org/2000/svg">
<g clip-path="url(#clip0_399_16)">
<path d="M26.574 55.4462C29.9099 60.1496 33.2404 64.3562 35.4477 67.0656C35.769 67.4598 36.0701 67.8256 36.3616 68.1779H29.7008C28.9552 68.1779 28.3508 68.7823 28.3508 69.5279C28.3508 70.2735 28.9552 70.8778 29.7008 70.8778H51.3006C52.0463 70.8778 52.6506 70.2735 52.6506 69.5279C52.6506 68.7823 52.0463 68.1779 51.3006 68.1779H44.6398C44.9314 67.8256 45.2324 67.4597 45.5552 67.0656C47.761 64.3655 51.0902 60.1496 54.4274 55.4462C57.7384 50.8733 60.7187 46.0699 63.3455 41.0727C66.1022 35.6591 67.5009 31.165 67.5009 27.7145C67.51 20.5445 64.6649 13.6658 59.5938 8.59697C59.2551 8.24575 58.7533 8.10464 58.2812 8.22788C57.8091 8.35112 57.4402 8.71941 57.3163 9.19134C57.1925 9.66326 57.3328 10.1652 57.6835 10.5044C62.248 15.0677 64.8089 21.2599 64.8008 27.7143C64.8008 30.7357 63.5021 34.818 60.9398 39.8468C58.3723 44.7282 55.4597 49.4202 52.2242 53.8869C48.933 58.5296 45.643 62.6889 43.4628 65.3619C42.7379 66.2502 42.0857 67.0359 41.5295 67.7001C41.2699 67.9966 40.8949 68.1665 40.5009 68.1665C40.1068 68.1665 39.7318 67.9965 39.4722 67.7001C38.916 67.036 38.264 66.2502 37.539 65.3619C35.3588 62.6903 32.0688 58.5308 28.7775 53.8869C25.5421 49.4202 22.6294 44.7282 20.0619 39.8468C17.4969 34.818 16.2009 30.7357 16.2009 27.7143C16.2001 17.9359 22.048 9.10527 31.051 5.2894C37.1004 2.75276 43.9152 2.75276 49.9646 5.2894C50.4088 5.47766 50.9197 5.41485 51.3049 5.12423C51.6901 4.83377 51.8911 4.35979 51.832 3.88091C51.773 3.40203 51.4631 2.99101 51.0189 2.80275C37.2713 -2.99573 21.4259 3.44538 15.6232 17.1911C14.2159 20.5206 13.4942 24.0997 13.501 27.7143C13.501 31.1649 14.8997 35.6591 17.6564 41.0794C20.2829 46.0743 23.2633 50.8755 26.574 55.4462Z" fill="#232323"/>
<path d="M40.5007 15.5278C41.2463 15.5278 41.8506 14.9235 41.8506 14.1779C41.8506 13.4323 41.2463 12.8279 40.5007 12.8279C34.0602 12.8278 28.5164 17.3774 27.2598 23.6942C26.0032 30.0109 29.3838 36.3356 35.334 38.8004C41.2842 41.2652 48.147 39.1834 51.7252 33.8284C55.3035 28.4733 54.6006 21.3363 50.0465 16.7821C49.7075 16.4312 49.2057 16.2904 48.7336 16.4139C48.2617 16.5375 47.893 16.9061 47.7695 17.378C47.6459 17.8501 47.7867 18.3519 48.1376 18.691C51.7811 22.3342 52.3435 28.0437 49.4811 32.3278C46.6187 36.612 41.1286 38.2775 36.3684 36.306C31.6082 34.3345 28.9035 29.2748 29.9085 24.2213C30.9134 19.1678 35.3483 15.528 40.5007 15.5278Z" fill="#232323"/>
<path d="M80.4918 74.349L72.1893 59.4988C71.4386 58.1794 70.0339 57.3685 68.5159 57.378H58.8944C58.1488 57.378 57.5445 57.9823 57.5445 58.7279C57.5445 59.4735 58.1488 60.0779 58.8944 60.0779H68.5159C69.0563 60.0674 69.5605 60.3492 69.8349 60.8149L78.1347 75.665C78.3608 76.0514 78.356 76.5306 78.1225 76.9125C77.8468 77.3681 77.3481 77.641 76.8158 77.628H4.18554C3.65366 77.6407 3.15564 77.3676 2.88004 76.9125C2.64654 76.5306 2.64195 76.0514 2.86786 75.665L11.1677 60.8149C11.4416 60.3493 11.9453 60.0676 12.4852 60.0779H22.1067C22.8523 60.0779 23.4567 59.4735 23.4567 58.7279C23.4567 57.9823 22.8523 57.378 22.1067 57.378H12.4854C10.9666 57.368 9.56083 58.1789 8.80936 59.4988L0.508096 74.349C-0.184045 75.5716 -0.168066 77.0713 0.55002 78.2789C1.30655 79.5648 2.69384 80.3468 4.18554 80.3283H76.8158C78.307 80.3463 79.6938 79.5645 80.45 78.2789C81.1681 77.0712 81.1841 75.5716 80.4918 74.349Z" fill="#232323"/>
<path d="M66.1509 64.1281H60.7509C60.4843 64.1285 60.2238 64.2073 60.0017 64.3549L55.9516 67.055C55.3313 67.4688 55.1639 68.3072 55.5776 68.9275C55.9915 69.5478 56.8298 69.7152 57.4501 69.3015L61.1559 66.8283H66.1509C66.8965 66.8283 67.5008 66.2238 67.5008 65.4783C67.5008 64.7324 66.8965 64.1281 66.1509 64.1281Z" fill="#232323"/>
<path d="M58.0508 73.578C58.0508 74.3237 58.6551 74.928 59.4007 74.928H70.2008C70.9464 74.928 71.5508 74.3237 71.5508 73.578C71.5508 72.8324 70.9464 72.2281 70.2008 72.2281H59.4007C58.6551 72.2281 58.0508 72.8324 58.0508 73.578Z" fill="#232323"/>
<path d="M24.3004 69.5281C24.8956 69.5289 25.421 69.1397 25.5939 68.5701C25.7668 68.0006 25.5463 67.385 25.0511 67.0549L21.0011 64.3548C20.7787 64.207 20.5175 64.1281 20.2504 64.1279H14.8504C14.1048 64.1279 13.5005 64.7324 13.5005 65.4779C13.5005 66.2235 14.105 66.8278 14.8504 66.8278H19.8454L23.5553 69.301C23.776 69.4485 24.0353 69.5274 24.3004 69.5281Z" fill="#232323"/>
<path d="M10.8004 72.2281C10.0548 72.2281 9.45044 72.8324 9.45044 73.578C9.45044 74.3237 10.0548 74.928 10.8004 74.928H21.6005C22.3461 74.928 22.9504 74.3237 22.9504 73.578C22.9504 72.8324 22.3461 72.2281 21.6005 72.2281H10.8004Z" fill="#232323"/>
</g>
<defs>
<clipPath id="clip0_399_16">
<rect width="81" height="81" fill="white"/>
</clipPath>
</defs>
</svg>
