<svg width="19" height="19" viewBox="0 0 19 19" fill="none" xmlns="http://www.w3.org/2000/svg">
<path d="M13.4683 0H2.55811C1.94424 0 1.44482 0.499418 1.44482 1.11328V4.89844C1.44482 5.10339 1.611 5.26953 1.81592 5.26953C2.02084 5.26953 2.18701 5.10339 2.18701 4.89844V1.11328C2.18701 0.90866 2.35348 0.742188 2.55811 0.742188H13.4683C13.6729 0.742188 13.8394 0.90866 13.8394 1.11328V14.918C13.8394 15.1226 13.6729 15.2891 13.4683 15.2891H2.55811C2.35348 15.2891 2.18701 15.1226 2.18701 14.918V8.02798C2.18701 7.82303 2.02084 7.65689 1.81592 7.65689C1.611 7.65689 1.44482 7.82303 1.44482 8.02798V14.918C1.44482 15.5318 1.94424 16.0312 2.55811 16.0312H13.4683C14.0821 16.0312 14.5815 15.5318 14.5815 14.918V1.11328C14.5815 0.499418 14.0821 0 13.4683 0Z" fill="white"/>
<path d="M2.07824 6.29745C2.00926 6.22842 1.91352 6.18909 1.81592 6.18909C1.71832 6.18909 1.62258 6.22842 1.55355 6.29745C1.48449 6.36684 1.44482 6.46258 1.44482 6.55981C1.44482 6.65778 1.48453 6.75315 1.55355 6.82254C1.62258 6.89157 1.71832 6.93127 1.81592 6.93127C1.91348 6.93127 2.00922 6.89157 2.07824 6.82254C2.1473 6.75352 2.18701 6.65778 2.18701 6.55981C2.18701 6.46221 2.14727 6.36684 2.07824 6.29745Z" fill="white"/>
<path d="M3.56485 16.8844C3.49583 16.8153 3.4005 16.7756 3.30249 16.7756C3.20489 16.7756 3.10915 16.8153 3.04016 16.8844C2.9711 16.9534 2.9314 17.0491 2.9314 17.1467C2.9314 17.2447 2.97114 17.3401 3.04016 17.4091C3.10915 17.4785 3.20489 17.5178 3.30249 17.5178C3.4005 17.5178 3.49583 17.4785 3.56485 17.4091C3.63391 17.3401 3.67358 17.2447 3.67358 17.1467C3.67358 17.0491 3.63388 16.9534 3.56485 16.8844Z" fill="white"/>
<path d="M15.6973 1.48669C15.4923 1.48669 15.3262 1.65283 15.3262 1.85779V16.4047C15.3262 16.6093 15.1597 16.7758 14.9551 16.7758H4.78711C4.58219 16.7758 4.41602 16.9419 4.41602 17.1469C4.41602 17.3518 4.58219 17.5179 4.78711 17.5179H14.9551C15.5689 17.5179 16.0684 17.0185 16.0684 16.4047V1.85779C16.0684 1.65283 15.9022 1.48669 15.6973 1.48669Z" fill="white"/>
<path d="M17.1841 2.96875C16.9792 2.96875 16.813 3.13489 16.813 3.33984V17.8867C16.813 18.0913 16.6465 18.2578 16.4419 18.2578H4.78955C4.58463 18.2578 4.41846 18.424 4.41846 18.6289C4.41846 18.8339 4.58463 19 4.78955 19H16.4419C17.0558 19 17.5552 18.5006 17.5552 17.8867V3.33984C17.5552 3.13489 17.389 2.96875 17.1841 2.96875Z" fill="white"/>
<path d="M7.45654 2.74609H3.89404C3.68912 2.74609 3.52295 2.91223 3.52295 3.11719V6.67969C3.52295 6.88464 3.68912 7.05078 3.89404 7.05078H7.45654C7.66146 7.05078 7.82764 6.88464 7.82764 6.67969V3.11719C7.82764 2.91223 7.66146 2.74609 7.45654 2.74609ZM7.08545 6.30859H4.26514V3.48828H7.08545V6.30859Z" fill="white"/>
<path d="M6.26269 8.73562C6.11774 8.59075 5.88284 8.59071 5.73785 8.73562L4.75137 9.7221L4.2927 9.26339C4.14779 9.11848 3.91289 9.11852 3.76786 9.26339C3.62295 9.4083 3.62295 9.64328 3.76786 9.78819L4.48897 10.5093C4.55859 10.5789 4.65296 10.618 4.75137 10.618C4.84982 10.618 4.94416 10.5789 5.01381 10.5093L6.26269 9.26042C6.4076 9.11551 6.4076 8.88054 6.26269 8.73562Z" fill="white"/>
<path d="M12.3426 9.24023H8.01318C7.80827 9.24023 7.64209 9.40637 7.64209 9.61133C7.64209 9.81628 7.80827 9.98242 8.01318 9.98242H12.3426C12.5475 9.98242 12.7137 9.81628 12.7137 9.61133C12.7137 9.40637 12.5475 9.24023 12.3426 9.24023Z" fill="white"/>
<path d="M12.1323 2.74609H9.53467C9.32975 2.74609 9.16357 2.91223 9.16357 3.11719C9.16357 3.32214 9.32975 3.48828 9.53467 3.48828H12.1323C12.3372 3.48828 12.5034 3.32214 12.5034 3.11719C12.5034 2.91223 12.3372 2.74609 12.1323 2.74609Z" fill="white"/>
<path d="M12.1323 4.52734H9.53467C9.32975 4.52734 9.16357 4.69348 9.16357 4.89844C9.16357 5.10339 9.32975 5.26953 9.53467 5.26953H12.1323C12.3372 5.26953 12.5034 5.10339 12.5034 4.89844C12.5034 4.69348 12.3372 4.52734 12.1323 4.52734Z" fill="white"/>
<path d="M12.1323 6.30859H9.53467C9.32975 6.30859 9.16357 6.47473 9.16357 6.67969C9.16357 6.88464 9.32975 7.05078 9.53467 7.05078H12.1323C12.3372 7.05078 12.5034 6.88464 12.5034 6.67969C12.5034 6.47473 12.3372 6.30859 12.1323 6.30859Z" fill="white"/>
<path d="M6.26269 11.5696C6.11774 11.4247 5.88284 11.4247 5.73785 11.5696L4.75137 12.5561L4.2927 12.0974C4.14779 11.9525 3.91289 11.9525 3.76786 12.0974C3.62295 12.2423 3.62295 12.4773 3.76786 12.6222L4.48897 13.3433C4.55859 13.4129 4.65296 13.452 4.75137 13.452C4.84982 13.452 4.94416 13.4129 5.01381 13.3433L6.26269 12.0944C6.4076 11.9495 6.4076 11.7145 6.26269 11.5696Z" fill="white"/>
<path d="M12.3426 12.0605H8.01318C7.80827 12.0605 7.64209 12.2267 7.64209 12.4316C7.64209 12.6366 7.80827 12.8027 8.01318 12.8027H12.3426C12.5475 12.8027 12.7137 12.6366 12.7137 12.4316C12.7137 12.2267 12.5475 12.0605 12.3426 12.0605Z" fill="white"/>
</svg>
