<svg width="75" height="75" viewBox="0 0 75 75" fill="none" xmlns="http://www.w3.org/2000/svg">
<g clip-path="url(#clip0_558_1375)">
<path d="M64.2856 0C62.8062 0 61.607 1.19924 61.607 2.67862V12.4634C47.8166 -0.887694 25.8143 -0.531424 12.4633 13.2588C6.17124 19.7578 2.66111 28.4541 2.67853 37.4999C2.67853 38.9793 3.87777 40.1785 5.35715 40.1785C6.83654 40.1785 8.03562 38.9793 8.03562 37.4999C8.03891 21.2273 21.233 8.03822 37.5058 8.04152C45.7702 8.04309 53.6538 11.5155 59.2339 17.6115L47.3679 21.5677C45.9626 22.0353 45.2022 23.5534 45.6697 24.9587C46.1373 26.364 47.6554 27.1244 49.0607 26.6569L65.1322 21.2998C66.2292 20.9344 66.968 19.9061 66.9644 18.7499V2.67846C66.9642 1.19924 65.765 0 64.2856 0Z" fill="#3C567A"/>
<path d="M69.6428 34.8215C68.1634 34.8215 66.9642 36.0208 66.9642 37.5002C66.9609 53.7728 53.7668 66.9618 37.494 66.9585C29.2296 66.957 21.346 63.4845 15.7659 57.3885L27.6319 53.4323C29.0372 52.9648 29.7976 51.4467 29.33 50.0413C28.8625 48.636 27.3443 47.8756 25.939 48.3432L9.86762 53.7003C8.77056 54.0656 8.0318 55.094 8.03541 56.2502V72.3216C8.03541 73.801 9.23465 75.0002 10.714 75.0002C12.1934 75.0002 13.3927 73.801 13.3927 72.3216V62.5367C27.183 75.8877 49.1855 75.5316 62.5364 61.7413C68.8284 55.2423 72.3385 46.546 72.3211 37.5002C72.3214 36.0208 71.1222 34.8215 69.6428 34.8215Z" fill="#3C567A"/>
</g>
<defs>
<clipPath id="clip0_558_1375">
<rect width="75" height="75" fill="white"/>
</clipPath>
</defs>
</svg>
