<svg width="22" height="22" viewBox="0 0 22 22" fill="none" xmlns="http://www.w3.org/2000/svg">
<path d="M18.9387 14.4764L21.9741 5.16271C22.0259 5.03299 22 4.87733 21.8962 4.74761C21.8184 4.61789 21.6627 4.56601 21.533 4.56601H5.60377L4.09906 2.69808C4.02123 2.59431 3.86557 2.51648 3.73585 2.51648H0.466981C0.207547 2.51648 0 2.72403 0 2.98346C0 3.24289 0.207547 3.45044 0.466981 3.45044H3.5283L4.98113 5.21459L6.79717 14.4245L7.49764 17.9009C7.54953 18.1085 7.73113 18.2641 7.96462 18.2641H8.89858C9.10613 18.9646 9.75472 19.4835 10.5071 19.4835C11.2594 19.4835 11.908 18.9646 12.1156 18.2641H16.5778C16.7854 18.9646 17.434 19.4835 18.1863 19.4835C19.1203 19.4835 19.8726 18.7311 19.8726 17.7971C19.8726 16.8632 19.1203 16.1108 18.1863 16.1108C17.408 16.1108 16.7854 16.6297 16.5778 17.3302H12.1156C11.908 16.6297 11.2594 16.1108 10.5071 16.1108C9.75472 16.1108 9.10613 16.6297 8.89858 17.3302H8.35377L7.83491 14.7877H18.4976C18.7052 14.7877 18.8868 14.658 18.9387 14.4764ZM18.1863 17.0707C18.6014 17.0707 18.9387 17.408 18.9387 17.8231C18.9387 18.2382 18.6014 18.5754 18.1863 18.5754C17.7712 18.5754 17.434 18.2382 17.434 17.8231C17.434 17.408 17.7712 17.0707 18.1863 17.0707ZM10.4811 17.0707C10.8962 17.0707 11.2335 17.408 11.2335 17.8231C11.2335 18.2382 10.8962 18.5754 10.4811 18.5754C10.066 18.5754 9.72877 18.2382 9.72877 17.8231C9.72877 17.408 10.066 17.0707 10.4811 17.0707ZM7.62736 13.8797L5.96698 5.47403H20.8585V5.49997L18.1344 13.8797H7.62736Z" fill="white"/>
<path d="M18.0306 7.62732H8.3537C8.09427 7.62732 7.88672 7.83487 7.88672 8.0943C7.88672 8.35374 8.09427 8.56128 8.3537 8.56128H18.0306C18.29 8.56128 18.4976 8.35374 18.4976 8.0943C18.4976 7.83487 18.29 7.62732 18.0306 7.62732Z" fill="white"/>
<path d="M17.2264 10.7406H9.13202C8.87259 10.7406 8.66504 10.9481 8.66504 11.2076C8.66504 11.467 8.87259 11.6746 9.13202 11.6746H17.2264C17.4858 11.6746 17.6933 11.467 17.6933 11.2076C17.6933 10.9481 17.4858 10.7406 17.2264 10.7406Z" fill="white"/>
</svg>
