<svg width="12" height="12" viewBox="0 0 12 12" fill="none" xmlns="http://www.w3.org/2000/svg">
<path d="M6.00002 2.11091C5.67611 2.11091 5.41357 1.84838 5.41357 1.52472V0.586453C5.41357 0.262535 5.67611 0 6.00002 0C6.32394 0 6.58647 0.262535 6.58647 0.586453V1.52472C6.58647 1.84838 6.32367 2.11091 6.00002 2.11091Z" fill="#FFE400"/>
<path d="M6.00002 9.88879C5.67611 9.88879 5.41357 10.1513 5.41357 10.4752V11.4132C5.41357 11.7374 5.67611 11.9999 6.00002 11.9999C6.32394 11.9999 6.58647 11.7374 6.58647 11.4132V10.4752C6.58647 10.1513 6.32367 9.88879 6.00002 9.88879Z" fill="#FFE400"/>
<path d="M8.74971 3.25007C8.52093 3.02102 8.52093 2.64982 8.74971 2.42077L9.41322 1.75728C9.642 1.5285 10.0135 1.5285 10.2425 1.75728C10.4716 1.98633 10.4716 2.3578 10.2425 2.58658L9.57903 3.25007C9.35024 3.47912 8.97903 3.47912 8.74971 3.25007Z" fill="#FFE400"/>
<path d="M3.25022 8.75023C3.02116 8.52092 2.64995 8.52092 2.42089 8.75023L1.75738 9.41346C1.5286 9.64225 1.52833 10.014 1.75738 10.2428C1.98644 10.4716 2.35792 10.4716 2.58671 10.2428L3.25022 9.57901C3.47927 9.35022 3.47927 8.97875 3.25022 8.75023Z" fill="#FFE400"/>
<path d="M9.88892 6.00005C9.88892 5.67612 10.1514 5.41357 10.4754 5.41357H11.4136C11.7375 5.41357 12.0001 5.67612 12.0001 6.00005C12.0001 6.32398 11.7375 6.58625 11.4136 6.58625H10.4754C10.1514 6.58625 9.88892 6.32398 9.88892 6.00005Z" fill="#FFE400"/>
<path d="M2.11089 6.00005C2.11089 5.67612 1.84836 5.41357 1.52444 5.41357H0.586447C0.262533 5.41357 0 5.67612 0 6.00005C0 6.32398 0.262533 6.58625 0.586447 6.58625H1.52471C1.84836 6.58625 2.11089 6.32398 2.11089 6.00005Z" fill="#FFE400"/>
<path d="M8.74967 8.75032C8.97872 8.52154 9.3502 8.52154 9.57899 8.75032L10.2425 9.41383C10.4715 9.64234 10.4715 10.0141 10.2425 10.2429C10.0134 10.4717 9.64223 10.4717 9.41318 10.2429L8.74967 9.57937C8.52062 9.35032 8.52062 8.97911 8.74967 8.75032Z" fill="#FFE400"/>
<path d="M3.25006 3.25001C3.47912 3.02097 3.47912 2.64976 3.25006 2.42071L2.58656 1.75748C2.3575 1.52843 1.98629 1.52843 1.75724 1.75748C1.52819 1.98626 1.52819 2.35773 1.75724 2.58652L2.42075 3.25001C2.6498 3.47933 3.02101 3.47933 3.25006 3.25001Z" fill="#FFE400"/>
</svg>
