<svg width="21" height="20" viewBox="0 0 21 20" fill="none" xmlns="http://www.w3.org/2000/svg">
<g clip-path="url(#clip0_833_98)">
<path d="M20.9502 10.2947L20.9329 10.3029L18.0195 3.46434H19.3489C19.5872 3.46434 19.7805 3.28208 19.7805 3.05729C19.7805 2.83249 19.5872 2.65023 19.3489 2.65023H11.2258V1.47384C11.2258 1.24904 11.0325 1.06678 10.7942 1.06678C10.5558 1.06678 10.3625 1.24904 10.3625 1.47384V2.64616H2.24378C2.00542 2.64616 1.81216 2.82842 1.81216 3.05322C1.81216 3.27801 2.00542 3.46027 2.24378 3.46027H3.62928L0.711532 10.2947C0.689951 10.3424 0.678243 10.3936 0.677002 10.4453C0.677002 12.3147 2.28381 13.83 4.26592 13.83C6.24802 13.83 7.85483 12.3147 7.85483 10.4453C7.85359 10.3936 7.84188 10.3424 7.8203 10.2947L4.90687 3.4562H10.3625V16.0424C8.30372 16.1889 6.69378 17.3694 6.69378 18.7981C6.69378 19.0229 6.88703 19.2052 7.1254 19.2052H14.4629C14.7013 19.2052 14.8945 19.0229 14.8945 18.7981C14.8945 17.3694 13.2846 16.1889 11.2258 16.0424V3.4562H16.7376L13.8414 10.2947C13.8198 10.3424 13.8081 10.3936 13.8069 10.4453C13.8069 12.3147 15.4137 13.83 17.3958 13.83C19.3779 13.83 20.9847 12.3147 20.9847 10.4453C20.9835 10.3936 20.9717 10.3424 20.9502 10.2947ZM4.26376 13.022C2.92693 13.0203 1.78842 12.1051 1.57477 10.8605H6.93548C6.72291 12.0991 5.59406 13.0123 4.26376 13.022ZM6.7801 10.0464H1.75605L4.27239 4.14006L6.7801 10.0464ZM13.9536 18.3911H7.63039C7.94979 17.5159 9.26623 16.8402 10.7898 16.8402C12.3135 16.8402 13.6342 17.5159 13.9536 18.3911ZM17.3764 4.14413L19.8841 10.0464H14.86L17.3764 4.14413ZM17.3764 13.022V13.0261C16.0446 13.0161 14.9153 12.1007 14.7046 10.8605H20.0653C19.8517 12.1051 18.7132 13.0203 17.3764 13.022Z" fill="black"/>
</g>
<defs>
<clipPath id="clip0_833_98">
<rect width="20.3077" height="19.152" fill="white" transform="translate(0.677002 0.559998)"/>
</clipPath>
</defs>
</svg>
